<svg width="144" height="144" viewBox="0 0 144 144" fill="none" xmlns="http://www.w3.org/2000/svg">
<rect width="144" height="144" fill="white"/>
<rect x="94.2667" y="91.2333" width="15.0667" height="15.0667" fill="#EA580C"/>
<path d="M63.7416 105.577C57.8957 105.577 52.7429 104.251 48.2832 101.599C43.8235 98.8872 40.328 95.0603 37.7968 90.1184C35.2656 85.1163 34 79.1197 34 72.1288C34 65.2584 35.2355 59.3221 37.7064 54.32C40.1773 49.2576 43.6427 45.3704 48.1024 42.6584C52.5621 39.8861 57.8053 38.5 63.832 38.5C72.0283 38.5 78.3864 40.5491 82.9064 44.6472C87.4264 48.6851 90.3795 54.3501 91.7656 61.6424L79.4712 62.2752C78.6877 58.0565 77.0003 54.7419 74.4088 52.3312C71.8173 49.9205 68.2917 48.7152 63.832 48.7152C60.216 48.7152 57.0821 49.6795 54.4304 51.608C51.7787 53.5365 49.7296 56.2485 48.2832 59.744C46.8368 63.2395 46.1136 67.3677 46.1136 72.1288C46.1136 76.9501 46.8368 81.1085 48.2832 84.604C49.7899 88.0392 51.8691 90.6909 54.5208 92.5592C57.1725 94.4275 60.2461 95.3616 63.7416 95.3616C68.5027 95.3616 72.1789 94.0659 74.7704 91.4744C77.4221 88.8227 79.1096 85.2067 79.8328 80.6264L92.1272 81.2592C91.2835 86.2613 89.6563 90.6005 87.2456 94.2768C84.8349 97.8928 81.6408 100.695 77.6632 102.684C73.7459 104.613 69.1053 105.577 63.7416 105.577Z" fill="black"/>
</svg>
